<?xml version="1.0" encoding="utf-8"?>
<svg xmlns="http://www.w3.org/2000/svg" viewBox="146.148 32.3109 455.584 101.116" width="455.584px" height="101.116px">
  <path d="M 105.527 662.685 L 105.527 615.669 L 97.607 615.669 L 81.263 643.389 L 81.119 643.389 L 64.775 615.669 L 56.495 615.669 L 56.495 662.685 L 64.199 662.685 L 64.199 630.717 L 64.559 630.717 L 80.183 657.069 L 81.479 657.069 L 97.103 630.717 L 97.463 630.717 L 97.463 662.685 Z M 118.511 639.069 C 118.511 653.037 130.103 664.125 144.935 664.125 C 159.767 664.125 171.575 653.037 171.575 639.069 C 171.575 625.317 159.767 614.229 144.935 614.229 C 130.103 614.229 118.511 625.317 118.511 639.069 Z M 127.007 639.069 C 127.007 629.349 134.855 621.429 144.935 621.429 C 155.087 621.429 163.079 629.349 163.079 639.069 C 163.079 648.861 155.087 656.925 144.935 656.925 C 134.855 656.925 127.007 648.861 127.007 639.069 Z M 219.566 615.669 L 203.294 652.389 L 202.862 652.389 L 186.59 615.669 L 177.374 615.669 L 199.19 662.685 L 206.534 662.685 L 228.35 615.669 Z M 265.104 634.533 L 247.032 634.533 L 247.032 622.869 L 277.128 622.869 L 277.128 615.669 L 238.968 615.669 L 238.968 662.685 L 278.856 662.685 L 278.856 655.485 L 247.032 655.485 L 247.032 641.733 L 265.104 641.733 Z M 313.806 662.685 C 322.302 662.685 326.55 660.525 330.582 656.925 C 335.046 652.605 337.494 646.197 337.494 639.141 C 337.494 632.301 335.262 626.253 331.086 621.933 C 327.054 618.045 322.302 615.669 313.806 615.669 L 291.27 615.669 L 291.27 662.685 Z M 299.334 655.485 L 299.334 622.869 L 313.446 622.869 C 319.35 622.869 321.87 624.381 324.534 626.829 C 327.486 629.853 329.07 634.245 329.07 639.141 C 329.07 644.181 327.27 648.789 324.246 651.813 C 321.438 654.117 319.422 655.485 313.446 655.485 Z M 343.794 662.685 L 352.218 662.685 L 357.834 650.013 L 380.226 650.013 L 385.914 662.685 L 394.77 662.685 L 372.954 615.669 L 365.61 615.669 Z M 368.85 625.317 L 369.282 625.317 L 377.346 643.533 L 360.714 643.533 Z M 413.59 662.685 L 413.59 615.669 L 405.526 615.669 L 405.526 662.685 Z M 430.761 615.669 L 430.761 662.685 L 467.697 662.685 L 467.697 655.485 L 438.825 655.485 L 438.825 615.669 Z M 502.575 615.669 L 489.111 633.813 L 475.647 615.669 L 465.423 615.669 L 484.719 641.013 L 484.719 662.685 L 492.783 662.685 L 492.783 641.013 L 512.079 615.669 Z" transform="matrix(0.9999999999999999, 0, 0, 0.9999999999999999, 89.65301513671875, -581.9180908203125)" style="fill: rgb(51, 51, 51); text-wrap-mode: nowrap;"/>
  <path d="M 213.285 714.525 L 213.285 687.752 L 208.775 687.752 L 199.468 703.537 L 199.386 703.537 L 190.079 687.752 L 185.364 687.752 L 185.364 714.525 L 189.751 714.525 L 189.751 696.321 L 189.956 696.321 L 198.853 711.327 L 199.591 711.327 L 208.488 696.321 L 208.693 696.321 L 208.693 714.525 Z M 238.326 698.494 L 228.035 698.494 L 228.035 691.852 L 245.173 691.852 L 245.173 687.752 L 223.443 687.752 L 223.443 714.525 L 246.157 714.525 L 246.157 710.425 L 228.035 710.425 L 228.035 702.594 L 238.326 702.594 Z M 250.213 691.852 L 260.75 691.852 L 260.75 714.525 L 265.342 714.525 L 265.342 691.852 L 275.838 691.852 L 275.838 687.752 L 250.213 687.752 Z M 287.189 714.525 L 287.189 701.979 L 301.744 701.979 L 301.744 714.525 L 306.336 714.525 L 306.336 687.752 L 301.744 687.752 L 301.744 697.879 L 287.189 697.879 L 287.189 687.752 L 282.597 687.752 L 282.597 714.525 Z M 314.119 701.077 C 314.119 709.031 320.72 715.345 329.166 715.345 C 337.612 715.345 344.336 709.031 344.336 701.077 C 344.336 693.246 337.612 686.932 329.166 686.932 C 320.72 686.932 314.119 693.246 314.119 701.077 Z M 318.957 701.077 C 318.957 695.542 323.426 691.032 329.166 691.032 C 334.947 691.032 339.498 695.542 339.498 701.077 C 339.498 706.653 334.947 711.245 329.166 711.245 C 323.426 711.245 318.957 706.653 318.957 701.077 Z M 364.916 714.525 C 369.754 714.525 372.173 713.295 374.469 711.245 C 377.011 708.785 378.405 705.136 378.405 701.118 C 378.405 697.223 377.134 693.779 374.756 691.319 C 372.46 689.105 369.754 687.752 364.916 687.752 L 352.083 687.752 L 352.083 714.525 Z M 356.675 710.425 L 356.675 691.852 L 364.711 691.852 C 368.073 691.852 369.508 692.713 371.025 694.107 C 372.706 695.829 373.608 698.33 373.608 701.118 C 373.608 703.988 372.583 706.612 370.861 708.334 C 369.262 709.646 368.114 710.425 364.711 710.425 Z" transform="matrix(0.9999999999999999, 0, 0, 0.9999999999999999, 89.65301513671875, -581.9180908203125)" style="fill: rgb(51, 51, 51); text-wrap-mode: nowrap;"/>
</svg>